<?xml version="1.0" encoding="UTF-8"?>
<!DOCTYPE svg PUBLIC "-//W3C//DTD SVG 1.1//EN" "http://www.w3.org/Graphics/SVG/1.1/DTD/svg11.dtd">
<svg xmlns="http://www.w3.org/2000/svg" version="1.1" width="918px" height="532px" style="shape-rendering:geometricPrecision; text-rendering:geometricPrecision; image-rendering:optimizeQuality; fill-rule:evenodd; clip-rule:evenodd" xmlns:xlink="http://www.w3.org/1999/xlink">
<g><path style="opacity:0.079" fill="#fdfefe" d="M 812.5,27.5 C 768.626,12.0179 723.292,5.51785 676.5,8C 655.404,9.37136 634.404,11.538 613.5,14.5C 612.391,13.71 611.058,13.21 609.5,13C 624.616,11.5896 639.616,9.58964 654.5,7C 681.834,5.01624 709.167,5.01624 736.5,7C 748.754,9.40725 761.088,11.4072 773.5,13C 772.833,13.3333 772.167,13.6667 771.5,14C 779.228,15.4122 786.895,17.0789 794.5,19C 794.167,19.3333 793.833,19.6667 793.5,20C 798.894,21.4647 804.228,23.1314 809.5,25C 810.942,25.3768 811.942,26.2101 812.5,27.5 Z"/></g>
<g><path style="opacity:0.999" fill="#e6f2fe" d="M 812.5,27.5 C 858.996,45.9092 886.496,79.5759 895,128.5C 895.709,138.057 896.876,147.557 898.5,157C 899.486,167.155 899.652,177.322 899,187.5C 896.791,217.16 892.124,246.16 885,274.5C 879.175,293.347 873.508,311.347 868,328.5C 862.856,340.029 857.856,351.695 853,363.5C 846.302,376.88 839.135,390.046 831.5,403C 833.285,404.163 835.285,404.83 837.5,405C 843.857,405.346 850.19,405.846 856.5,406.5C 853.351,407.165 850.018,407.498 846.5,407.5C 837.003,406.792 827.503,406.125 818,405.5C 812.257,405.358 806.757,406.025 801.5,407.5C 792.677,407.829 785.51,411.495 780,418.5C 772.972,427.686 767.472,437.686 763.5,448.5C 762.876,448.083 762.543,447.416 762.5,446.5C 764.645,438.961 766.145,431.294 767,423.5C 767.249,420.823 768.249,418.49 770,416.5C 787.545,401.953 805.379,387.786 823.5,374C 839.465,360.248 849.965,343.082 855,322.5C 861.054,301.836 865.054,280.836 867,259.5C 862.312,267.52 856.645,274.854 850,281.5C 833.141,297.27 816.475,313.27 800,329.5C 787.048,345.402 777.215,363.068 770.5,382.5C 769.645,374.836 768.811,367.17 768,359.5C 762.626,343.554 757.793,327.554 753.5,311.5C 750.257,294.982 748.257,278.315 747.5,261.5C 745.408,261.561 743.908,262.561 743,264.5C 728.913,291.524 725.579,319.858 733,349.5C 738.925,370.609 745.258,391.609 752,412.5C 752.645,431.533 752.145,450.533 750.5,469.5C 741.167,469.5 731.833,469.5 722.5,469.5C 722.5,471.833 722.5,474.167 722.5,476.5C 722.427,478.027 723.094,479.027 724.5,479.5C 726.008,489.546 727.841,499.546 730,509.5C 731.273,512.597 733.107,515.264 735.5,517.5C 704.5,517.5 673.5,517.5 642.5,517.5C 660.557,477.517 678.723,437.517 697,397.5C 697.941,395.011 697.441,393.011 695.5,391.5C 653.669,390.335 611.669,390.169 569.5,391C 566.667,392.5 564.5,394.667 563,397.5C 547.527,432.251 531.861,466.917 516,501.5C 499.577,502.492 483.077,502.825 466.5,502.5C 467.398,501.842 468.398,501.176 469.5,500.5C 463.959,497.563 458.292,494.896 452.5,492.5C 445.915,482.067 439.082,471.733 432,461.5C 428.213,456.044 424.046,450.877 419.5,446C 415.833,445.333 412.167,445.333 408.5,446C 396.647,448.729 384.98,452.063 373.5,456C 368.898,457.122 364.232,457.622 359.5,457.5C 359.681,436.692 361.514,416.025 365,395.5C 366.849,372.05 361.516,350.384 349,330.5C 348.321,326.122 347.488,321.789 346.5,317.5C 357.856,307.33 365.022,294.663 368,279.5C 368.944,273.506 369.777,267.506 370.5,261.5C 374.412,249.843 376.412,237.843 376.5,225.5C 378.539,224.422 380.706,223.422 383,222.5C 384.254,202.504 377.754,185.504 363.5,171.5C 359.763,163.085 353.43,158.085 344.5,156.5C 329.09,144.094 311.756,140.594 292.5,146C 280.464,151.26 270.964,159.427 264,170.5C 258,185.167 252,199.833 246,214.5C 231.654,237.608 211.487,253.441 185.5,262C 165.732,265.253 147.566,272.42 131,283.5C 130.312,284.332 130.479,284.998 131.5,285.5C 145.989,275.427 161.989,268.927 179.5,266C 201.399,260.307 219.899,249.141 235,232.5C 235.667,233.167 235.667,233.833 235,234.5C 230.963,238.369 227.13,242.369 223.5,246.5C 215.865,252.603 207.531,257.77 198.5,262C 185.717,267.261 172.717,271.928 159.5,276C 140.701,283.306 126.535,295.806 117,313.5C 114.332,318.629 113.499,323.962 114.5,329.5C 118.359,310.801 128.359,296.301 144.5,286C 148.833,283.667 153.167,281.333 157.5,279C 175.042,273.708 192.042,267.042 208.5,259C 212.344,256.578 216.01,253.911 219.5,251C 220.437,250.308 221.103,250.475 221.5,251.5C 213.191,258.292 204.191,264.125 194.5,269C 176.617,276.275 159.284,284.609 142.5,294C 119.542,313.268 111.042,337.768 117,367.5C 125.162,398.835 145.329,415.835 177.5,418.5C 176.944,422.84 176.277,427.173 175.5,431.5C 175.34,433.355 176.007,434.688 177.5,435.5C 175.949,446.807 174.615,458.141 173.5,469.5C 119.677,437.178 77.1772,393.845 46,339.5C 28.8043,307.734 19.6376,273.734 18.5,237.5C 18.8765,182.682 41.5431,139.849 86.5,109C 102.957,99.8115 120.624,95.3115 139.5,95.5C 150.877,96.1259 162.211,97.1259 173.5,98.5C 180.336,99.1388 187.003,100.305 193.5,102C 199.157,103.36 204.657,105.193 210,107.5C 210.873,107.265 211.707,106.931 212.5,106.5C 217.071,109.3 222.071,110.8 227.5,111C 228.942,111.377 229.942,112.21 230.5,113.5C 232.019,114.41 233.685,115.243 235.5,116C 246.256,118.251 256.923,120.918 267.5,124C 295.283,128.94 322.949,128.606 350.5,123C 370.809,116.35 389.143,106.35 405.5,93C 438.366,73.8941 472.366,57.3941 507.5,43.5C 507.369,42.6236 507.702,41.9569 508.5,41.5C 536.75,31.6783 564.75,23.5116 592.5,17C 599.47,15.8385 606.47,15.0052 613.5,14.5C 634.404,11.538 655.404,9.37136 676.5,8C 723.292,5.51785 768.626,12.0179 812.5,27.5 Z"/></g>
<g><path style="opacity:0.113" fill="#fcfdfe" d="M 507.5,43.5 C 472.366,57.3941 438.366,73.8941 405.5,93C 389.143,106.35 370.809,116.35 350.5,123C 322.949,128.606 295.283,128.94 267.5,124C 256.923,120.918 246.256,118.251 235.5,116C 233.685,115.243 232.019,114.41 230.5,113.5C 233.501,111.996 236.167,112.496 238.5,115C 255.329,119.228 272.329,122.562 289.5,125C 303.167,125.667 316.833,125.667 330.5,125C 344.488,123.516 357.488,119.35 369.5,112.5C 370.086,112.709 370.586,113.043 371,113.5C 412.474,84.6931 456.307,61.1931 502.5,43C 504.197,42.6155 505.863,42.7822 507.5,43.5 Z"/></g>
<g><path style="opacity:1" fill="#a2c9fd" d="M 654.5,127.5 C 721.503,127.167 788.503,127.5 855.5,128.5C 853.637,132.755 851.97,137.088 850.5,141.5C 783.5,142.833 716.5,142.833 649.5,141.5C 651.78,137.042 653.447,132.376 654.5,127.5 Z"/></g>
<g><path style="opacity:1" fill="#313d60" d="M 344.5,156.5 C 317.466,152.429 299.966,163.429 292,189.5C 289.942,190.229 288.109,191.229 286.5,192.5C 277.106,197.259 271.606,204.925 270,215.5C 267.719,227.699 271.219,237.699 280.5,245.5C 277.304,254.421 274.304,263.421 271.5,272.5C 256.884,281.146 242.551,290.313 228.5,300C 209.524,304.979 198.024,317.146 194,336.5C 188.783,364.011 183.283,391.344 177.5,418.5C 145.329,415.835 125.162,398.835 117,367.5C 111.042,337.768 119.542,313.268 142.5,294C 159.284,284.609 176.617,276.275 194.5,269C 204.191,264.125 213.191,258.292 221.5,251.5C 225.373,248.814 228.206,245.481 230,241.5C 228.223,243.79 226.056,245.457 223.5,246.5C 227.13,242.369 230.963,238.369 235,234.5C 235.667,233.833 235.667,233.167 235,232.5C 219.899,249.141 201.399,260.307 179.5,266C 161.989,268.927 145.989,275.427 131.5,285.5C 130.479,284.998 130.312,284.332 131,283.5C 147.566,272.42 165.732,265.253 185.5,262C 211.487,253.441 231.654,237.608 246,214.5C 252,199.833 258,185.167 264,170.5C 270.964,159.427 280.464,151.26 292.5,146C 311.756,140.594 329.09,144.094 344.5,156.5 Z"/></g>
<g><path style="opacity:1" fill="#9fc8fd" d="M 646.5,149.5 C 713.503,149.167 780.503,149.5 847.5,150.5C 845.731,154.644 844.064,158.81 842.5,163C 775.834,163.5 709.167,163.667 642.5,163.5C 643.635,158.764 644.968,154.097 646.5,149.5 Z"/></g>
<g><path style="opacity:1" fill="#313d60" d="M 363.5,171.5 C 377.754,185.504 384.254,202.504 383,222.5C 380.706,223.422 378.539,224.422 376.5,225.5C 363.899,227.207 351.232,228.207 338.5,228.5C 338.5,226.833 338.5,225.167 338.5,223.5C 338.829,217.794 338.495,212.128 337.5,206.5C 336.893,206.624 336.56,206.957 336.5,207.5C 334.98,214.231 333.147,220.897 331,227.5C 329.262,228.127 327.429,228.46 325.5,228.5C 322.795,228.684 320.462,228.017 318.5,226.5C 321.34,211.147 316.34,199.313 303.5,191C 308.494,176.304 318.827,167.97 334.5,166C 344.726,165.037 354.392,166.87 363.5,171.5 Z"/></g>
<g><path style="opacity:1" fill="#e5ecf3" d="M 531.5,177.5 C 528.192,180.635 524.692,183.635 521,186.5C 519.815,184.623 518.815,182.623 518,180.5C 517.329,179.748 516.496,179.414 515.5,179.5C 515.953,178.542 516.619,177.708 517.5,177C 522.252,176.227 526.919,176.393 531.5,177.5 Z"/></g>
<g><path style="opacity:1" fill="#a6ccfe" d="M 547.5,185.5 C 565.833,185.5 584.167,185.5 602.5,185.5C 602.67,186.822 602.337,187.989 601.5,189C 583.17,189.5 564.836,189.667 546.5,189.5C 546.433,188.041 546.766,186.708 547.5,185.5 Z"/></g>
<g><path style="opacity:1" fill="#f2786f" d="M 534.5,181.5 C 532.223,182.449 530.223,183.782 528.5,185.5C 525.536,187.295 522.702,189.295 520,191.5C 517.432,188.708 515.599,185.375 514.5,181.5C 514.328,180.508 514.662,179.842 515.5,179.5C 516.496,179.414 517.329,179.748 518,180.5C 518.815,182.623 519.815,184.623 521,186.5C 524.692,183.635 528.192,180.635 531.5,177.5C 532.71,177.068 533.71,176.401 534.5,175.5C 537.417,172.896 540.751,171.229 544.5,170.5C 544.719,171.675 544.386,172.675 543.5,173.5C 540.239,175.949 537.239,178.616 534.5,181.5 Z"/></g>
<g><path style="opacity:0.13" fill="#fcfdfd" d="M 173.5,98.5 C 162.211,97.1259 150.877,96.1259 139.5,95.5C 120.624,95.3115 102.957,99.8115 86.5,109C 41.5431,139.849 18.8765,182.682 18.5,237.5C 19.6376,273.734 28.8043,307.734 46,339.5C 77.1772,393.845 119.677,437.178 173.5,469.5C 173.806,472.385 173.473,475.052 172.5,477.5C 172.808,475.076 172.474,472.743 171.5,470.5C 113.047,435.292 68.5471,387.959 38,328.5C 33.7312,318.191 29.5646,307.857 25.5,297.5C 5.67102,237.327 15.171,182.661 54,133.5C 86.7662,97.8487 126.6,86.182 173.5,98.5 Z"/></g>
<g><path style="opacity:1" fill="#f09691" d="M 286.5,192.5 C 297.228,191.732 304.394,196.399 308,206.5C 312.102,223.442 306.935,236.609 292.5,246C 289.854,246.497 287.187,246.664 284.5,246.5C 283.292,245.766 281.959,245.433 280.5,245.5C 271.219,237.699 267.719,227.699 270,215.5C 271.606,204.925 277.106,197.259 286.5,192.5 Z"/></g>
<g><path style="opacity:1" fill="#9fd49c" d="M 534.5,175.5 C 533.71,176.401 532.71,177.068 531.5,177.5C 526.919,176.393 522.252,176.227 517.5,177C 516.619,177.708 515.953,178.542 515.5,179.5C 514.662,179.842 514.328,180.508 514.5,181.5C 507.161,192.687 510.161,196.52 523.5,193C 526.276,191.292 527.943,188.792 528.5,185.5C 530.223,183.782 532.223,182.449 534.5,181.5C 532.519,184.936 531.019,188.603 530,192.5C 528.786,194.049 527.286,195.215 525.5,196C 520.167,196.667 514.833,196.667 509.5,196C 507.876,194.883 506.876,193.383 506.5,191.5C 507.84,186.314 509.673,181.314 512,176.5C 513.255,175.789 514.421,174.956 515.5,174C 521.167,173.333 526.833,173.333 532.5,174C 533.044,174.717 533.711,175.217 534.5,175.5 Z"/></g>
<g><path style="opacity:1" fill="#e1ecef" d="M 514.5,181.5 C 515.599,185.375 517.432,188.708 520,191.5C 522.702,189.295 525.536,187.295 528.5,185.5C 527.943,188.792 526.276,191.292 523.5,193C 510.161,196.52 507.161,192.687 514.5,181.5 Z"/></g>
<g><path style="opacity:1" fill="#a5ccfd" d="M 545.5,192.5 C 563.5,192.5 581.5,192.5 599.5,192.5C 599.67,193.822 599.337,194.989 598.5,196C 580.503,196.5 562.503,196.667 544.5,196.5C 544.433,195.041 544.766,193.708 545.5,192.5 Z"/></g>
<g><path style="opacity:1" fill="#a4cbfd" d="M 607.5,201.5 C 648.833,201.5 690.167,201.5 731.5,201.5C 723.585,224.906 715.252,248.239 706.5,271.5C 665.172,272.5 623.839,272.833 582.5,272.5C 590.233,248.636 598.566,224.969 607.5,201.5 Z"/></g>
<g><path style="opacity:1" fill="#f1e2da" d="M 283.5,203.5 C 288.058,202.38 290.891,204.047 292,208.5C 293.582,216.408 292.249,223.741 288,230.5C 284.925,233.059 281.925,233.059 279,230.5C 274.637,220.518 276.137,211.518 283.5,203.5 Z"/></g>
<g><path style="opacity:1" fill="#d34b41" d="M 344.5,156.5 C 353.43,158.085 359.763,163.085 363.5,171.5C 354.392,166.87 344.726,165.037 334.5,166C 318.827,167.97 308.494,176.304 303.5,191C 316.34,199.313 321.34,211.147 318.5,226.5C 315.375,235.958 309.375,242.958 300.5,247.5C 296.215,248.295 291.881,248.628 287.5,248.5C 286.5,247.833 285.5,247.167 284.5,246.5C 287.187,246.664 289.854,246.497 292.5,246C 306.935,236.609 312.102,223.442 308,206.5C 304.394,196.399 297.228,191.732 286.5,192.5C 288.109,191.229 289.942,190.229 292,189.5C 299.966,163.429 317.466,152.429 344.5,156.5 Z"/></g>
<g><path style="opacity:1" fill="#f6f9fd" d="M 609.5,204.5 C 648.833,204.5 688.167,204.5 727.5,204.5C 720.522,226.269 712.855,247.769 704.5,269C 665.168,269.5 625.835,269.667 586.5,269.5C 593.164,247.51 600.831,225.843 609.5,204.5 Z"/></g>
<g><path style="opacity:1" fill="#9fc8fd" d="M 611.5,208.5 C 648.833,208.5 686.167,208.5 723.5,208.5C 716.801,227.43 709.801,246.264 702.5,265C 665.502,265.5 628.502,265.667 591.5,265.5C 596.976,246.072 603.643,227.072 611.5,208.5 Z"/></g>
<g><path style="opacity:1" fill="#ef9859" d="M 336.5,207.5 C 337.167,212.833 337.833,218.167 338.5,223.5C 338.5,225.167 338.5,226.833 338.5,228.5C 351.232,228.207 363.899,227.207 376.5,225.5C 376.412,237.843 374.412,249.843 370.5,261.5C 366.655,271.165 359.488,275.832 349,275.5C 336.433,274.987 324.933,271.32 314.5,264.5C 311.204,260.702 307.704,257.036 304,253.5C 302.579,251.595 301.412,249.595 300.5,247.5C 309.375,242.958 315.375,235.958 318.5,226.5C 320.462,228.017 322.795,228.684 325.5,228.5C 327.429,228.46 329.262,228.127 331,227.5C 333.147,220.897 334.98,214.231 336.5,207.5 Z"/></g>
<g><path style="opacity:1" fill="#e6ecf4" d="M 516.5,218.5 C 513.499,221.493 510.165,224.159 506.5,226.5C 505.081,224.664 503.914,222.664 503,220.5C 502.329,219.748 501.496,219.414 500.5,219.5C 500.918,218.778 501.584,218.278 502.5,218C 507.352,217.185 512.019,217.352 516.5,218.5 Z"/></g>
<g><path style="opacity:1" fill="#a2d5a0" d="M 519.5,216.5 C 518.5,217.167 517.5,217.833 516.5,218.5C 512.019,217.352 507.352,217.185 502.5,218C 501.584,218.278 500.918,218.778 500.5,219.5C 499.662,219.842 499.328,220.508 499.5,221.5C 497.653,225.225 496.319,229.225 495.5,233.5C 500.179,233.666 504.845,233.499 509.5,233C 511.734,231.362 513.067,229.195 513.5,226.5C 515.091,224.367 517.091,222.701 519.5,221.5C 518.16,226.013 516.327,230.347 514,234.5C 512.581,235.46 511.081,236.293 509.5,237C 492.242,241.072 487.742,235.239 496,219.5C 496.785,217.714 497.951,216.214 499.5,215C 505.388,213.424 511.388,213.091 517.5,214C 518.381,214.708 519.047,215.542 519.5,216.5 Z"/></g>
<g><path style="opacity:1" fill="#9a6f5c" d="M 336.5,207.5 C 336.56,206.957 336.893,206.624 337.5,206.5C 338.495,212.128 338.829,217.794 338.5,223.5C 337.833,218.167 337.167,212.833 336.5,207.5 Z"/></g>
<g><path style="opacity:1" fill="#a1c9fd" d="M 534.5,222.5 C 552.5,222.5 570.5,222.5 588.5,222.5C 588.67,223.822 588.337,224.989 587.5,226C 569.503,226.5 551.503,226.667 533.5,226.5C 533.433,225.041 533.766,223.708 534.5,222.5 Z"/></g>
<g><path style="opacity:1" fill="#e4ecf2" d="M 499.5,221.5 C 501.06,225.043 502.893,228.377 505,231.5C 507.971,230.021 510.804,228.355 513.5,226.5C 513.067,229.195 511.734,231.362 509.5,233C 504.845,233.499 500.179,233.666 495.5,233.5C 496.319,229.225 497.653,225.225 499.5,221.5 Z"/></g>
<g><path style="opacity:1" fill="#f2786f" d="M 519.5,221.5 C 517.091,222.701 515.091,224.367 513.5,226.5C 510.804,228.355 507.971,230.021 505,231.5C 502.893,228.377 501.06,225.043 499.5,221.5C 499.328,220.508 499.662,219.842 500.5,219.5C 501.496,219.414 502.329,219.748 503,220.5C 503.914,222.664 505.081,224.664 506.5,226.5C 510.165,224.159 513.499,221.493 516.5,218.5C 517.5,217.833 518.5,217.167 519.5,216.5C 522.574,213.967 525.907,211.967 529.5,210.5C 529.649,211.552 529.483,212.552 529,213.5C 525.642,216.031 522.476,218.698 519.5,221.5 Z"/></g>
<g><path style="opacity:1" fill="#9fc8fd" d="M 530.5,230.5 C 549.179,230.167 567.845,230.5 586.5,231.5C 586.291,232.086 585.957,232.586 585.5,233C 567.17,233.5 548.836,233.667 530.5,233.5C 530.5,232.5 530.5,231.5 530.5,230.5 Z"/></g>
<g><path style="opacity:1" fill="#f3f8fc" d="M 656.5,217.5 C 661.959,217.103 667.292,217.603 672.5,219C 678.041,222.822 679.874,227.989 678,234.5C 671.007,252.077 658.507,258.577 640.5,254C 639.213,252.59 638.046,251.09 637,249.5C 634.783,238.43 638.283,229.596 647.5,223C 650.564,221.141 653.564,219.308 656.5,217.5 Z"/></g>
<g><path style="opacity:1" fill="#a1c9fd" d="M 659.5,219.5 C 672.695,218.92 677.529,224.92 674,237.5C 668.309,249.597 658.809,254.763 645.5,253C 639.274,248.989 637.441,243.489 640,236.5C 644.079,227.903 650.579,222.236 659.5,219.5 Z"/></g>
<g><path style="opacity:1" fill="#f8fafd" d="M 655.5,229.5 C 659.202,231.024 662.536,233.19 665.5,236C 661.136,238.182 656.802,240.349 652.5,242.5C 652.167,242 651.833,241.5 651.5,241C 652.742,237.106 654.076,233.272 655.5,229.5 Z"/></g>
<g><path style="opacity:1" fill="#ee985a" d="M 280.5,245.5 C 281.959,245.433 283.292,245.766 284.5,246.5C 285.5,247.167 286.5,247.833 287.5,248.5C 288.201,262.585 291.701,275.919 298,288.5C 300.463,291.965 303.296,295.131 306.5,298C 309.614,299.087 311.947,298.254 313.5,295.5C 315.444,302.25 315.944,309.25 315,316.5C 312.03,322.367 307.53,323.867 301.5,321C 295.06,316.282 289.894,310.448 286,303.5C 280.106,293.645 275.273,283.312 271.5,272.5C 274.304,263.421 277.304,254.421 280.5,245.5 Z"/></g>
<g><path style="opacity:1" fill="#e28440" d="M 300.5,247.5 C 301.412,249.595 302.579,251.595 304,253.5C 307.704,257.036 311.204,260.702 314.5,264.5C 313.248,268.422 312.248,272.422 311.5,276.5C 310.861,277.097 310.528,277.93 310.5,279C 312.194,284.357 313.194,289.857 313.5,295.5C 311.947,298.254 309.614,299.087 306.5,298C 303.296,295.131 300.463,291.965 298,288.5C 291.701,275.919 288.201,262.585 287.5,248.5C 291.881,248.628 296.215,248.295 300.5,247.5 Z"/></g>
<g><path style="opacity:1" fill="#a6ccfd" d="M 518.5,264.5 C 536.833,264.5 555.167,264.5 573.5,264.5C 573.67,265.822 573.337,266.989 572.5,268C 554.5,268.667 536.5,268.667 518.5,268C 517.316,266.855 517.316,265.688 518.5,264.5 Z"/></g>
<g><path style="opacity:1" fill="#323e60" d="M 370.5,261.5 C 369.777,267.506 368.944,273.506 368,279.5C 365.022,294.663 357.856,307.33 346.5,317.5C 340.036,300.534 328.536,288.2 312,280.5C 311.51,279.207 311.343,277.873 311.5,276.5C 312.248,272.422 313.248,268.422 314.5,264.5C 324.933,271.32 336.433,274.987 349,275.5C 359.488,275.832 366.655,271.165 370.5,261.5 Z"/></g>
<g><path style="opacity:1" fill="#a3cafd" d="M 487.5,253.5 C 492.511,253.334 497.511,253.501 502.5,254C 505.207,255.864 506.041,258.364 505,261.5C 503.47,265.09 502.136,268.757 501,272.5C 499.457,274.378 497.624,275.878 495.5,277C 478.633,281.481 473.8,275.981 481,260.5C 482.694,257.642 484.861,255.309 487.5,253.5 Z"/></g>
<g><path style="opacity:1" fill="#e5f1fe" d="M 488.5,257.5 C 492.833,257.5 497.167,257.5 501.5,257.5C 500.58,263.096 498.58,268.263 495.5,273C 490.845,273.499 486.179,273.666 481.5,273.5C 481.702,267.108 484.035,261.775 488.5,257.5 Z"/></g>
<g><path style="opacity:1" fill="#a3cafd" d="M 516.5,271.5 C 534.833,271.5 553.167,271.5 571.5,271.5C 571.64,273.124 570.973,274.29 569.5,275C 551.503,275.5 533.503,275.667 515.5,275.5C 515.433,274.041 515.766,272.708 516.5,271.5 Z"/></g>
<g><path style="opacity:1" fill="#74a0dd" d="M 271.5,272.5 C 275.273,283.312 280.106,293.645 286,303.5C 289.894,310.448 295.06,316.282 301.5,321C 307.53,323.867 312.03,322.367 315,316.5C 315.944,309.25 315.444,302.25 313.5,295.5C 313.194,289.857 312.194,284.357 310.5,279C 310.528,277.93 310.861,277.097 311.5,276.5C 311.343,277.873 311.51,279.207 312,280.5C 328.536,288.2 340.036,300.534 346.5,317.5C 347.488,321.789 348.321,326.122 349,330.5C 361.516,350.384 366.849,372.05 365,395.5C 361.514,416.025 359.681,436.692 359.5,457.5C 351.777,459.638 343.777,460.971 335.5,461.5C 323.767,461.925 312.1,463.091 300.5,465C 291.921,465.816 283.421,465.649 275,464.5C 275.449,458.134 276.449,451.801 278,445.5C 281.786,432.16 285.786,418.827 290,405.5C 293.585,390.768 291.252,377.101 283,364.5C 272.482,350.137 261.482,336.137 250,322.5C 254.049,335.075 256.716,348.075 258,361.5C 259.178,387.637 257.844,413.637 254,439.5C 248.327,441.094 242.494,441.927 236.5,442C 235.934,442.995 235.267,443.828 234.5,444.5C 215.451,443.568 196.451,440.568 177.5,435.5C 176.007,434.688 175.34,433.355 175.5,431.5C 176.277,427.173 176.944,422.84 177.5,418.5C 183.283,391.344 188.783,364.011 194,336.5C 198.024,317.146 209.524,304.979 228.5,300C 242.551,290.313 256.884,281.146 271.5,272.5 Z"/></g>
<g><path style="opacity:1" fill="#9cd399" d="M 763.5,448.5 C 762.243,451.096 761.076,453.763 760,456.5C 760.462,434.4 764.795,413.067 773,392.5C 778.263,380.565 786.43,371.065 797.5,364C 810.152,357.95 823.152,352.783 836.5,348.5C 834.234,347.794 831.901,347.961 829.5,349C 817.752,352.764 806.419,357.431 795.5,363C 792.061,365.139 788.894,367.639 786,370.5C 791.013,361.725 797.18,353.559 804.5,346C 817.377,337.397 831.377,331.231 846.5,327.5C 845.667,327.167 844.833,326.833 844,326.5C 840.948,327.711 837.781,328.545 834.5,329C 827.455,331.898 820.455,334.565 813.5,337C 827.86,324.317 840.36,310.151 851,294.5C 852.814,292.285 853.314,289.952 852.5,287.5C 848.499,294.84 843.999,301.84 839,308.5C 827,321.833 814.333,334.5 801,346.5C 777.601,372.31 763.601,402.643 759,437.5C 758.246,448.267 757.08,458.934 755.5,469.5C 754.5,469.5 753.5,469.5 752.5,469.5C 753.667,452.169 754.5,434.836 755,417.5C 749.438,396.25 743.105,375.25 736,354.5C 727.627,323.587 730.627,293.92 745,265.5C 745.995,282.13 748.661,298.463 753,314.5C 753.483,313.552 753.649,312.552 753.5,311.5C 757.793,327.554 762.626,343.554 768,359.5C 768.811,367.17 769.645,374.836 770.5,382.5C 777.215,363.068 787.048,345.402 800,329.5C 816.475,313.27 833.141,297.27 850,281.5C 856.645,274.854 862.312,267.52 867,259.5C 865.054,280.836 861.054,301.836 855,322.5C 849.965,343.082 839.465,360.248 823.5,374C 805.379,387.786 787.545,401.953 770,416.5C 768.249,418.49 767.249,420.823 767,423.5C 766.145,431.294 764.645,438.961 762.5,446.5C 762.543,447.416 762.876,448.083 763.5,448.5 Z"/></g>
<g><path style="opacity:1" fill="#475474" d="M 221.5,251.5 C 221.103,250.475 220.437,250.308 219.5,251C 216.01,253.911 212.344,256.578 208.5,259C 192.042,267.042 175.042,273.708 157.5,279C 153.167,281.333 148.833,283.667 144.5,286C 128.359,296.301 118.359,310.801 114.5,329.5C 113.499,323.962 114.332,318.629 117,313.5C 126.535,295.806 140.701,283.306 159.5,276C 172.717,271.928 185.717,267.261 198.5,262C 207.531,257.77 215.865,252.603 223.5,246.5C 226.056,245.457 228.223,243.79 230,241.5C 228.206,245.481 225.373,248.814 221.5,251.5 Z"/></g>
<g><path style="opacity:1" fill="#6891c8" d="M 335.5,461.5 C 298.953,467.145 262.287,472.812 225.5,478.5C 228.091,467.061 231.091,455.727 234.5,444.5C 235.267,443.828 235.934,442.995 236.5,442C 242.494,441.927 248.327,441.094 254,439.5C 257.844,413.637 259.178,387.637 258,361.5C 256.716,348.075 254.049,335.075 250,322.5C 261.482,336.137 272.482,350.137 283,364.5C 291.252,377.101 293.585,390.768 290,405.5C 285.786,418.827 281.786,432.16 278,445.5C 276.449,451.801 275.449,458.134 275,464.5C 283.421,465.649 291.921,465.816 300.5,465C 312.1,463.091 323.767,461.925 335.5,461.5 Z"/></g>
<g><path style="opacity:1" fill="#a1c9fd" d="M 473.5,327.5 C 523.834,327.333 574.168,327.5 624.5,328C 625.876,330.54 625.21,332.54 622.5,334C 572.167,334.667 521.833,334.667 471.5,334C 469.933,331.094 470.6,328.928 473.5,327.5 Z"/></g>
<g><path style="opacity:1" fill="#a6ccfd" d="M 467.5,342.5 C 517.834,342.333 568.168,342.5 618.5,343C 620.028,345.881 619.362,348.214 616.5,350C 566.163,350.833 515.83,350.667 465.5,349.5C 464.64,346.847 465.307,344.514 467.5,342.5 Z"/></g>
<g><path style="opacity:1" fill="#7fbc7c" d="M 753.5,311.5 C 753.649,312.552 753.483,313.552 753,314.5C 748.661,298.463 745.995,282.13 745,265.5C 730.627,293.92 727.627,323.587 736,354.5C 743.105,375.25 749.438,396.25 755,417.5C 754.5,434.836 753.667,452.169 752.5,469.5C 751.833,469.5 751.167,469.5 750.5,469.5C 752.145,450.533 752.645,431.533 752,412.5C 745.258,391.609 738.925,370.609 733,349.5C 725.579,319.858 728.913,291.524 743,264.5C 743.908,262.561 745.408,261.561 747.5,261.5C 748.257,278.315 750.257,294.982 753.5,311.5 Z"/></g>
<g><path style="opacity:1" fill="#7ab976" d="M 763.5,448.5 C 767.472,437.686 772.972,427.686 780,418.5C 785.51,411.495 792.677,407.829 801.5,407.5C 818.226,408.514 834.893,410.181 851.5,412.5C 862.142,412.505 872.475,410.838 882.5,407.5C 883.521,408.002 883.688,408.668 883,409.5C 873.519,412.999 863.685,414.666 853.5,414.5C 838.651,413.031 823.817,411.364 809,409.5C 793.86,409.735 782.527,416.402 775,429.5C 769.86,438.114 765.527,447.114 762,456.5C 760.369,460.688 759.536,465.021 759.5,469.5C 758.167,469.5 756.833,469.5 755.5,469.5C 757.08,458.934 758.246,448.267 759,437.5C 763.601,402.643 777.601,372.31 801,346.5C 814.333,334.5 827,321.833 839,308.5C 843.999,301.84 848.499,294.84 852.5,287.5C 853.314,289.952 852.814,292.285 851,294.5C 840.36,310.151 827.86,324.317 813.5,337C 820.455,334.565 827.455,331.898 834.5,329C 837.781,328.545 840.948,327.711 844,326.5C 844.833,326.833 845.667,327.167 846.5,327.5C 831.377,331.231 817.377,337.397 804.5,346C 797.18,353.559 791.013,361.725 786,370.5C 788.894,367.639 792.061,365.139 795.5,363C 806.419,357.431 817.752,352.764 829.5,349C 831.901,347.961 834.234,347.794 836.5,348.5C 823.152,352.783 810.152,357.95 797.5,364C 786.43,371.065 778.263,380.565 773,392.5C 764.795,413.067 760.462,434.4 760,456.5C 761.076,453.763 762.243,451.096 763.5,448.5 Z"/></g>
<g><path style="opacity:1" fill="#9cd6e8" d="M 695.5,391.5 C 657.832,391.333 620.165,391.5 582.5,392C 579.567,394.264 577.4,397.098 576,400.5C 558.488,439.522 540.988,478.522 523.5,517.5C 477.5,517.5 431.5,517.5 385.5,517.5C 388.675,516.571 392.009,515.738 395.5,515C 396.945,508.388 400.945,504.221 407.5,502.5C 421.677,502.829 435.677,502.496 449.5,501.5C 451.5,501.5 453.5,501.5 455.5,501.5C 459.099,502.344 462.766,502.677 466.5,502.5C 483.077,502.825 499.577,502.492 516,501.5C 531.861,466.917 547.527,432.251 563,397.5C 564.5,394.667 566.667,392.5 569.5,391C 611.669,390.169 653.669,390.335 695.5,391.5 Z"/></g>
<g><path style="opacity:1" fill="#7acee7" d="M 695.5,391.5 C 697.441,393.011 697.941,395.011 697,397.5C 678.723,437.517 660.557,477.517 642.5,517.5C 602.833,517.5 563.167,517.5 523.5,517.5C 540.988,478.522 558.488,439.522 576,400.5C 577.4,397.098 579.567,394.264 582.5,392C 620.165,391.5 657.832,391.333 695.5,391.5 Z"/></g>
<g><path style="opacity:0.037" fill="#f4faf3" d="M 896.5,405.5 C 896.877,403.742 897.544,402.075 898.5,400.5C 898,400.167 897.5,399.833 897,399.5C 888.663,402.252 880.163,404.418 871.5,406C 868.633,406.801 865.966,406.634 863.5,405.5C 875.393,403.955 886.893,400.955 898,396.5C 899.732,396.734 900.566,397.734 900.5,399.5C 900.101,401.197 899.601,402.863 899,404.5C 898.329,405.252 897.496,405.586 896.5,405.5 Z"/></g>
<g><path style="opacity:0.025" fill="#f1faf2" d="M 896.5,405.5 C 895.872,408.09 894.705,410.423 893,412.5C 889.535,414.963 886.369,417.796 883.5,421C 882.255,421.791 880.922,422.291 879.5,422.5C 885.5,417.167 891.167,411.5 896.5,405.5 Z"/></g>
<g><path style="opacity:0.999" fill="#9dd49a" d="M 896.5,405.5 C 891.167,411.5 885.5,417.167 879.5,422.5C 871.89,426.473 864.223,430.14 856.5,433.5C 854.052,434.473 851.385,434.806 848.5,434.5C 842.833,434.5 837.167,434.5 831.5,434.5C 827.069,434.769 822.735,434.436 818.5,433.5C 811.476,431.222 804.143,430.222 796.5,430.5C 785.212,429.564 777.045,434.231 772,444.5C 767.693,452.44 764.526,460.773 762.5,469.5C 761.5,469.5 760.5,469.5 759.5,469.5C 759.536,465.021 760.369,460.688 762,456.5C 765.527,447.114 769.86,438.114 775,429.5C 782.527,416.402 793.86,409.735 809,409.5C 823.817,411.364 838.651,413.031 853.5,414.5C 863.685,414.666 873.519,412.999 883,409.5C 883.688,408.668 883.521,408.002 882.5,407.5C 872.475,410.838 862.142,412.505 851.5,412.5C 834.893,410.181 818.226,408.514 801.5,407.5C 806.757,406.025 812.257,405.358 818,405.5C 827.503,406.125 837.003,406.792 846.5,407.5C 850.018,407.498 853.351,407.165 856.5,406.5C 858.607,405.532 860.941,405.198 863.5,405.5C 865.966,406.634 868.633,406.801 871.5,406C 880.163,404.418 888.663,402.252 897,399.5C 897.5,399.833 898,400.167 898.5,400.5C 897.544,402.075 896.877,403.742 896.5,405.5 Z"/></g>
<g><path style="opacity:0.985" fill="#e8f3fc" d="M 818.5,433.5 C 815.881,433.232 813.381,433.565 811,434.5C 805.326,444.503 798.659,453.837 791,462.5C 790.362,463.609 789.862,464.775 789.5,466C 790.5,467.667 791.5,469.333 792.5,471C 791.268,473.151 791.268,475.317 792.5,477.5C 792.253,478.713 791.586,479.38 790.5,479.5C 790.567,478.041 790.234,476.708 789.5,475.5C 789.833,473.5 790.167,471.5 790.5,469.5C 781.167,469.5 771.833,469.5 762.5,469.5C 764.526,460.773 767.693,452.44 772,444.5C 777.045,434.231 785.212,429.564 796.5,430.5C 804.143,430.222 811.476,431.222 818.5,433.5 Z"/></g>
<g><path style="opacity:0.043" fill="#eef7ed" d="M 879.5,422.5 C 879.586,423.496 879.252,424.329 878.5,425C 871.704,429.231 864.371,432.065 856.5,433.5C 864.223,430.14 871.89,426.473 879.5,422.5 Z"/></g>
<g><path style="opacity:0.057" fill="#fefefe" d="M 831.5,434.5 C 837.167,434.5 842.833,434.5 848.5,434.5C 848.389,435.117 848.056,435.617 847.5,436C 844.833,436.167 842.167,436.333 839.5,436.5C 836.41,436.478 833.743,435.812 831.5,434.5 Z"/></g>
<g><path style="opacity:0.999" fill="#f0995a" d="M 177.5,435.5 C 196.451,440.568 215.451,443.568 234.5,444.5C 231.091,455.727 228.091,467.061 225.5,478.5C 262.287,472.812 298.953,467.145 335.5,461.5C 343.777,460.971 351.777,459.638 359.5,457.5C 364.232,457.622 368.898,457.122 373.5,456C 384.98,452.063 396.647,448.729 408.5,446C 412.167,445.333 415.833,445.333 419.5,446C 424.046,450.877 428.213,456.044 432,461.5C 439.082,471.733 445.915,482.067 452.5,492.5C 450.597,492.204 448.93,491.537 447.5,490.5C 445.747,488.217 443.414,485.717 440.5,483C 436.167,479.833 431.833,476.667 427.5,473.5C 421.924,478.577 415.924,483.077 409.5,487C 406.833,487.667 404.167,487.667 401.5,487C 387.872,478.334 373.539,477.167 358.5,483.5C 329.392,492.425 300.392,501.758 271.5,511.5C 253.344,516.72 235.344,522.054 217.5,527.5C 216.833,527.833 216.167,528.167 215.5,528.5C 211.611,527.306 207.611,527.472 203.5,529C 196.5,529.667 189.5,529.667 182.5,529C 178.112,525.187 175.612,520.354 175,514.5C 173.986,503.189 173.32,491.855 173,480.5C 172.79,482.058 172.29,483.391 171.5,484.5C 171.298,482.05 171.631,479.717 172.5,477.5C 173.473,475.052 173.806,472.385 173.5,469.5C 174.615,458.141 175.949,446.807 177.5,435.5 Z"/></g>
<g><path style="opacity:0.998" fill="#f19994" d="M 750.5,469.5 C 751.167,469.5 751.833,469.5 752.5,469.5C 753.5,469.5 754.5,469.5 755.5,469.5C 756.833,469.5 758.167,469.5 759.5,469.5C 760.5,469.5 761.5,469.5 762.5,469.5C 771.833,469.5 781.167,469.5 790.5,469.5C 790.167,471.5 789.833,473.5 789.5,475.5C 767.092,475.178 744.758,475.511 722.5,476.5C 722.5,474.167 722.5,471.833 722.5,469.5C 731.833,469.5 741.167,469.5 750.5,469.5 Z"/></g>
<g><path style="opacity:0.998" fill="#d8534a" d="M 789.5,475.5 C 790.234,476.708 790.567,478.041 790.5,479.5C 768.5,479.5 746.5,479.5 724.5,479.5C 723.094,479.027 722.427,478.027 722.5,476.5C 744.758,475.511 767.092,475.178 789.5,475.5 Z"/></g>
<g><path style="opacity:1" fill="#e6eff8" d="M 447.5,490.5 C 441.586,487.458 435.419,485.125 429,483.5C 414.034,487.267 399.534,492.434 385.5,499C 376.729,498.628 368.062,497.461 359.5,495.5C 358.539,493.735 358.205,491.735 358.5,489.5C 358.5,487.5 358.5,485.5 358.5,483.5C 373.539,477.167 387.872,478.334 401.5,487C 404.167,487.667 406.833,487.667 409.5,487C 415.924,483.077 421.924,478.577 427.5,473.5C 431.833,476.667 436.167,479.833 440.5,483C 443.414,485.717 445.747,488.217 447.5,490.5 Z"/></g>
<g><path style="opacity:0.998" fill="#f29893" d="M 724.5,479.5 C 746.5,479.5 768.5,479.5 790.5,479.5C 790.125,481.698 789.458,483.698 788.5,485.5C 786.116,494.728 783.616,504.061 781,513.5C 779.624,514.705 778.458,516.038 777.5,517.5C 775.407,518.045 773.407,518.878 771.5,520C 761.167,520.667 750.833,520.667 740.5,520C 739.473,519.487 738.473,518.987 737.5,518.5C 737.158,517.662 736.492,517.328 735.5,517.5C 733.107,515.264 731.273,512.597 730,509.5C 727.841,499.546 726.008,489.546 724.5,479.5 Z"/></g>
<g><path style="opacity:1" fill="#6d91c6" d="M 358.5,483.5 C 358.5,485.5 358.5,487.5 358.5,489.5C 336.844,499.276 314.844,508.276 292.5,516.5C 285.244,515.453 278.244,513.786 271.5,511.5C 300.392,501.758 329.392,492.425 358.5,483.5 Z"/></g>
<g><path style="opacity:1" fill="#e28542" d="M 447.5,490.5 C 448.93,491.537 450.597,492.204 452.5,492.5C 458.292,494.896 463.959,497.563 469.5,500.5C 468.398,501.176 467.398,501.842 466.5,502.5C 462.766,502.677 459.099,502.344 455.5,501.5C 447.172,498.62 438.672,495.954 430,493.5C 428.189,494.424 428.355,495.257 430.5,496C 436.49,497.609 442.49,499.109 448.5,500.5C 434.833,501.167 421.167,501.833 407.5,502.5C 400.945,504.221 396.945,508.388 395.5,515C 392.009,515.738 388.675,516.571 385.5,517.5C 377.5,517.5 369.5,517.5 361.5,517.5C 360.893,510.16 360.227,502.827 359.5,495.5C 368.062,497.461 376.729,498.628 385.5,499C 399.534,492.434 414.034,487.267 429,483.5C 435.419,485.125 441.586,487.458 447.5,490.5 Z"/></g>
<g><path style="opacity:1" fill="#6b97d0" d="M 358.5,489.5 C 358.205,491.735 358.539,493.735 359.5,495.5C 360.227,502.827 360.893,510.16 361.5,517.5C 369.5,517.5 377.5,517.5 385.5,517.5C 431.5,517.5 477.5,517.5 523.5,517.5C 563.167,517.5 602.833,517.5 642.5,517.5C 673.5,517.5 704.5,517.5 735.5,517.5C 736.492,517.328 737.158,517.662 737.5,518.5C 580.5,518.5 423.5,518.5 266.5,518.5C 275.167,517.833 283.833,517.167 292.5,516.5C 314.844,508.276 336.844,499.276 358.5,489.5 Z"/></g>
<g><path style="opacity:1" fill="#e7e2dc" d="M 455.5,501.5 C 453.5,501.5 451.5,501.5 449.5,501.5C 449.5,500.833 449.167,500.5 448.5,500.5C 442.49,499.109 436.49,497.609 430.5,496C 428.355,495.257 428.189,494.424 430,493.5C 438.672,495.954 447.172,498.62 455.5,501.5 Z"/></g>
<g><path style="opacity:1" fill="#cba079" d="M 448.5,500.5 C 449.167,500.5 449.5,500.833 449.5,501.5C 435.677,502.496 421.677,502.829 407.5,502.5C 421.167,501.833 434.833,501.167 448.5,500.5 Z"/></g>
<g><path style="opacity:0.056" fill="#fdeee3" d="M 215.5,528.5 C 211.144,529.595 206.811,530.595 202.5,531.5C 202.167,531.5 201.833,531.5 201.5,531.5C 201.167,530.167 200.833,530.167 200.5,531.5C 195.167,531.5 189.833,531.5 184.5,531.5C 180,530.011 176.667,527.011 174.5,522.5C 174.833,521.833 175.167,521.167 175.5,520.5C 174.469,519.3 173.635,517.966 173,516.5C 172.377,505.836 171.877,495.169 171.5,484.5C 172.29,483.391 172.79,482.058 173,480.5C 173.32,491.855 173.986,503.189 175,514.5C 175.612,520.354 178.112,525.187 182.5,529C 189.5,529.667 196.5,529.667 203.5,529C 207.611,527.472 211.611,527.306 215.5,528.5 Z"/></g>
<g><path style="opacity:0.852" fill="#f5f1f0" d="M 271.5,511.5 C 278.244,513.786 285.244,515.453 292.5,516.5C 283.833,517.167 275.167,517.833 266.5,518.5C 261.182,522.881 261.182,527.214 266.5,531.5C 265.5,531.5 264.5,531.5 263.5,531.5C 259.571,527.053 259.571,522.553 263.5,518C 262.737,517.056 261.737,516.556 260.5,516.5C 255.123,518.905 249.456,520.571 243.5,521.5C 242.353,521.818 241.519,522.484 241,523.5C 240.275,522.941 239.442,522.608 238.5,522.5C 231.787,525.177 224.787,526.844 217.5,527.5C 235.344,522.054 253.344,516.72 271.5,511.5 Z"/></g>
<g><path style="opacity:0.013" fill="#eeeff3" d="M 788.5,485.5 C 787.781,492.531 786.781,499.531 785.5,506.5C 784.549,509.566 783.216,512.399 781.5,515C 792.167,515.333 802.833,515.667 813.5,516C 820.121,520.209 821.121,525.375 816.5,531.5C 815.833,531.5 815.167,531.5 814.5,531.5C 818.833,526.661 818.499,522.161 813.5,518C 801.505,517.5 789.505,517.333 777.5,517.5C 778.458,516.038 779.624,514.705 781,513.5C 783.616,504.061 786.116,494.728 788.5,485.5 Z"/></g>
<g><path style="opacity:0.996" fill="#2d5b99" d="M 777.5,517.5 C 789.505,517.333 801.505,517.5 813.5,518C 818.499,522.161 818.833,526.661 814.5,531.5C 631.833,531.5 449.167,531.5 266.5,531.5C 261.182,527.214 261.182,522.881 266.5,518.5C 423.5,518.5 580.5,518.5 737.5,518.5C 738.473,518.987 739.473,519.487 740.5,520C 750.833,520.667 761.167,520.667 771.5,520C 773.407,518.878 775.407,518.045 777.5,517.5 Z"/></g>
</svg>
