<?xml version="1.0" encoding="UTF-8"?>
<!DOCTYPE svg PUBLIC "-//W3C//DTD SVG 1.1//EN" "http://www.w3.org/Graphics/SVG/1.1/DTD/svg11.dtd">
<svg xmlns="http://www.w3.org/2000/svg" version="1.1" width="1008px" height="527px" style="shape-rendering:geometricPrecision; text-rendering:geometricPrecision; image-rendering:optimizeQuality; fill-rule:evenodd; clip-rule:evenodd" xmlns:xlink="http://www.w3.org/1999/xlink">
<g><path style="opacity:1" fill="#e6f2fe" d="M 692.5,76.5 C 702.945,80.5416 713.278,85.0416 723.5,90C 738.819,99.977 752.319,112.144 764,126.5C 781.997,152.461 799.997,178.461 818,204.5C 850.12,249.968 890.287,286.468 938.5,314C 979.998,344.237 990.665,383.07 970.5,430.5C 967.483,438.199 963.65,445.532 959,452.5C 944.84,470.829 928.007,486.162 908.5,498.5C 898.747,503.041 888.747,507.041 878.5,510.5C 880.193,511.228 881.693,512.228 883,513.5C 883.801,516.367 883.634,519.034 882.5,521.5C 882.167,521.5 881.833,521.5 881.5,521.5C 881.663,519.143 881.497,516.81 881,514.5C 880.097,513.299 878.931,512.465 877.5,512C 834.835,511.5 792.168,511.333 749.5,511.5C 760.21,511.078 770.543,508.578 780.5,504C 787.438,500.457 790.772,494.791 790.5,487C 788.059,439.191 781.226,392.024 770,345.5C 768.083,337.006 764.583,329.34 759.5,322.5C 757.842,318.328 755.175,314.828 751.5,312C 718.934,299.552 688.268,283.719 659.5,264.5C 656.556,255.667 654.223,246.667 652.5,237.5C 653.09,232.05 654.257,226.717 656,221.5C 659.897,212.372 663.23,203.038 666,193.5C 666.667,186.5 666.667,179.5 666,172.5C 664.888,163.725 660.055,158.558 651.5,157C 640.901,143.92 627.234,139.253 610.5,143C 595.248,146.529 580.248,150.863 565.5,156C 563.604,157.808 563.104,159.975 564,162.5C 567.227,167.705 570.393,172.872 573.5,178C 572.226,186.652 572.226,195.152 573.5,203.5C 572.207,211.174 572.207,218.841 573.5,226.5C 572.051,255.739 585.385,267.072 613.5,260.5C 614.275,264.814 614.941,269.147 615.5,273.5C 591.645,284.593 567.645,295.427 543.5,306C 542.748,306.671 542.414,307.504 542.5,308.5C 539.395,314.139 537.062,320.139 535.5,326.5C 531.341,335.463 527.841,344.796 525,354.5C 515.106,390.413 504.439,426.08 493,461.5C 492.293,463.081 491.46,464.581 490.5,466C 483.672,470.915 476.672,475.581 469.5,480C 468.748,480.671 468.414,481.504 468.5,482.5C 465.993,479.964 462.993,479.131 459.5,480C 457.383,482.935 455.049,485.602 452.5,488C 446.493,488.132 440.493,488.132 434.5,488C 427.344,492.992 421.01,498.825 415.5,505.5C 407.493,505.334 399.493,505.5 391.5,506C 389.393,507.264 388.393,509.097 388.5,511.5C 380.833,511.5 373.167,511.5 365.5,511.5C 363.957,505.922 360.624,501.755 355.5,499C 339.741,498.97 324.075,498.303 308.5,497C 303.108,492.428 301.108,486.594 302.5,479.5C 328.833,479.5 355.167,479.5 381.5,479.5C 397.854,481.016 406.521,473.683 407.5,457.5C 399.753,410.778 391.587,364.112 383,317.5C 380.941,309.107 375.775,303.607 367.5,301C 299.833,300.333 232.167,300.333 164.5,301C 163.584,301.278 162.918,301.778 162.5,302.5C 158.287,302.415 155.12,304.082 153,307.5C 150.586,313.612 149.919,319.946 151,326.5C 159.548,372.455 167.881,418.455 176,464.5C 178.118,471.583 182.618,476.416 189.5,479C 208.164,479.5 226.83,479.667 245.5,479.5C 243.507,491.488 246.174,502.154 253.5,511.5C 181.833,511.5 110.167,511.5 38.5,511.5C 38.6107,510.883 38.944,510.383 39.5,510C 43.5,509.667 47.5,509.333 51.5,509C 49.5479,506.926 47.7146,504.759 46,502.5C 31.9317,478.074 21.5984,452.407 15,425.5C 3.45485,343.213 34.6215,284.879 108.5,250.5C 110.461,249.152 110.628,247.819 109,246.5C 108.667,229.167 108.333,211.833 108,194.5C 96.5762,195.654 85.0762,195.82 73.5,195C 72.944,194.617 72.6107,194.117 72.5,193.5C 84.8333,193.5 97.1667,193.5 109.5,193.5C 109.175,211.077 109.508,228.577 110.5,246C 165.833,246.667 221.167,246.667 276.5,246C 277.829,220.833 277.829,195.667 276.5,170.5C 279.223,169.648 281.89,168.481 284.5,167C 296.235,158.146 307.902,149.313 319.5,140.5C 319.937,138.926 320.937,137.759 322.5,137C 327.914,134.166 332.581,130.666 336.5,126.5C 341.167,126.5 345.833,126.5 350.5,126.5C 350.334,134.84 350.5,143.173 351,151.5C 359.167,143.333 367.333,135.167 375.5,127C 410.5,126.667 445.5,126.333 480.5,126C 482.333,125.5 483.5,124.333 484,122.5C 484.667,104.167 484.667,85.8333 484,67.5C 483.167,66.6667 482.333,65.8333 481.5,65C 432.833,64.3333 384.167,64.3333 335.5,65C 334.789,66.2547 333.956,67.4214 333,68.5C 332.5,86.8303 332.333,105.164 332.5,123.5C 331.338,104.671 331.171,85.6711 332,66.5C 333.109,64.1853 334.943,62.6853 337.5,62C 372.17,61.4577 406.836,61.6244 441.5,62.5C 455.122,61.6841 468.788,61.1841 482.5,61C 484.893,59.1369 487.56,57.8035 490.5,57C 556.383,45.3006 619.883,50.4673 681,72.5C 681.873,72.2645 682.707,71.9312 683.5,71.5C 686.433,73.4624 689.433,75.1291 692.5,76.5 Z"/></g>
<g><path style="opacity:1" fill="#a2c9fd" d="M 336.5,126.5 C 335.883,126.611 335.383,126.944 335,127.5C 333.915,126.264 333.082,124.931 332.5,123.5C 332.333,105.164 332.5,86.8303 333,68.5C 333.956,67.4214 334.789,66.2547 335.5,65C 384.167,64.3333 432.833,64.3333 481.5,65C 482.333,65.8333 483.167,66.6667 484,67.5C 484.667,85.8333 484.667,104.167 484,122.5C 483.5,124.333 482.333,125.5 480.5,126C 445.5,126.333 410.5,126.667 375.5,127C 367.333,135.167 359.167,143.333 351,151.5C 350.5,143.173 350.334,134.84 350.5,126.5C 345.833,126.5 341.167,126.5 336.5,126.5 Z"/></g>
<g><path style="opacity:1" fill="#fcfdfe" d="M 342.5,70.5 C 386.501,70.3333 430.501,70.5 474.5,71C 475,71.5 475.5,72 476,72.5C 476.667,87.5 476.667,102.5 476,117.5C 475.167,118.333 474.333,119.167 473.5,120C 430.167,120.667 386.833,120.667 343.5,120C 342.333,119.5 341.5,118.667 341,117.5C 340.333,102.5 340.333,87.5 341,72.5C 341.717,71.9558 342.217,71.2891 342.5,70.5 Z"/></g>
<g><path style="opacity:1" fill="#a1c9fd" d="M 351.5,77.5 C 373.169,77.3334 394.836,77.5 416.5,78C 417.833,79.3333 417.833,80.6667 416.5,82C 394.833,82.6667 373.167,82.6667 351.5,82C 350.272,80.5098 350.272,79.0098 351.5,77.5 Z"/></g>
<g><path style="opacity:1" fill="#b0d2fd" d="M 350.5,89.5 C 389.168,89.3333 427.835,89.5 466.5,90C 467.833,91 467.833,92 466.5,93C 427.835,93.5 389.168,93.6667 350.5,93.5C 350.5,92.1667 350.5,90.8333 350.5,89.5 Z"/></g>
<g><path style="opacity:1" fill="#a5cbfd" d="M 350.5,95.5 C 389.168,95.3333 427.835,95.5 466.5,96C 466.957,96.414 467.291,96.914 467.5,97.5C 428.506,98.4999 389.506,98.8332 350.5,98.5C 350.5,97.5 350.5,96.5 350.5,95.5 Z"/></g>
<g><path style="opacity:0.098" fill="#fcfdfe" d="M 692.5,76.5 C 712.031,81.2406 729.365,90.0739 744.5,103C 752.582,110.692 760.082,118.859 767,127.5C 785.917,154.336 804.583,181.336 823,208.5C 845.825,239.654 872.325,266.487 902.5,289C 913.589,296.428 924.922,303.428 936.5,310C 952.866,321.03 965.7,335.196 975,352.5C 984.904,376.121 984.904,399.787 975,423.5C 973.946,426.314 972.446,428.647 970.5,430.5C 990.665,383.07 979.998,344.237 938.5,314C 890.287,286.468 850.12,249.968 818,204.5C 799.997,178.461 781.997,152.461 764,126.5C 752.319,112.144 738.819,99.977 723.5,90C 713.278,85.0416 702.945,80.5416 692.5,76.5 Z"/></g>
<g><path style="opacity:1" fill="#a3cafd" d="M 437.5,112.5 C 439.5,112.5 441.5,112.5 443.5,112.5C 443.5,114.5 443.5,116.5 443.5,118.5C 441.5,118.5 439.5,118.5 437.5,118.5C 437.5,116.5 437.5,114.5 437.5,112.5 Z"/></g>
<g><path style="opacity:1" fill="#a3cafd" d="M 449.5,112.5 C 451.5,112.5 453.5,112.5 455.5,112.5C 455.5,114.5 455.5,116.5 455.5,118.5C 453.5,118.5 451.5,118.5 449.5,118.5C 449.5,116.5 449.5,114.5 449.5,112.5 Z"/></g>
<g><path style="opacity:1" fill="#a3cafd" d="M 461.5,112.5 C 463.5,112.5 465.5,112.5 467.5,112.5C 467.5,114.5 467.5,116.5 467.5,118.5C 465.5,118.5 463.5,118.5 461.5,118.5C 461.5,116.5 461.5,114.5 461.5,112.5 Z"/></g>
<g><path style="opacity:0.061" fill="#f7fbfe" d="M 319.5,140.5 C 307.902,149.313 296.235,158.146 284.5,167C 281.89,168.481 279.223,169.648 276.5,170.5C 264.167,170.5 251.833,170.5 239.5,170.5C 239.825,152.923 239.492,135.423 238.5,118C 183.167,117.333 127.833,117.333 72.5,118C 71.1712,143.167 71.1712,168.333 72.5,193.5C 71.0689,193.119 70.2355,192.119 70,190.5C 69.3333,166.833 69.3333,143.167 70,119.5C 71.2679,116.402 73.6012,114.735 77,114.5C 129.248,115.731 181.748,115.731 234.5,114.5C 237.23,115.01 239.397,116.344 241,118.5C 241.5,135.163 241.667,151.83 241.5,168.5C 253.878,168.416 266.211,168.583 278.5,169C 291.365,160.734 303.699,151.734 315.5,142C 316.745,141.209 318.078,140.709 319.5,140.5 Z"/></g>
<g><path style="opacity:1" fill="#bae2fe" d="M 239.5,170.5 C 238.167,170.5 236.833,170.5 235.5,170.5C 235.82,159.585 235.487,148.752 234.5,138C 181.834,137.5 129.168,137.333 76.5,137.5C 76.5,154.833 76.5,172.167 76.5,189.5C 87.5,189.5 98.5,189.5 109.5,189.5C 109.5,190.833 109.5,192.167 109.5,193.5C 97.1667,193.5 84.8333,193.5 72.5,193.5C 71.1712,168.333 71.1712,143.167 72.5,118C 127.833,117.333 183.167,117.333 238.5,118C 239.492,135.423 239.825,152.923 239.5,170.5 Z"/></g>
<g><path style="opacity:0.993" fill="#fcfdfe" d="M 235.5,170.5 C 194.165,170.333 152.832,170.5 111.5,171C 111,171.5 110.5,172 110,172.5C 109.502,175.817 109.335,179.15 109.5,182.5C 99.4944,182.334 89.4944,182.5 79.5,183C 78.1667,184.333 78.1667,185.667 79.5,187C 89.4944,187.5 99.4944,187.666 109.5,187.5C 109.5,188.167 109.5,188.833 109.5,189.5C 98.5,189.5 87.5,189.5 76.5,189.5C 76.5,172.167 76.5,154.833 76.5,137.5C 129.168,137.333 181.834,137.5 234.5,138C 235.487,148.752 235.82,159.585 235.5,170.5 Z"/></g>
<g><path style="opacity:1" fill="#325d99" d="M 652.5,237.5 C 648.585,233.86 645.252,229.693 642.5,225C 650.541,219.224 653.708,211.391 652,201.5C 649.661,196.744 646.161,195.577 641.5,198C 639.291,199.873 637.458,202.04 636,204.5C 635.642,214.877 636.142,225.21 637.5,235.5C 636.455,241.451 634.288,247.118 631,252.5C 625.658,256.226 619.825,258.892 613.5,260.5C 585.385,267.072 572.051,255.739 573.5,226.5C 574.932,232.959 577.098,239.292 580,245.5C 582.683,249.758 586.516,251.758 591.5,251.5C 606.185,250.908 618.018,244.908 627,233.5C 630.799,224.796 631.466,215.796 629,206.5C 628,205.5 627,204.5 626,203.5C 625.624,198.997 625.791,194.497 626.5,190C 627.343,182.179 624.009,179.512 616.5,182C 603.985,189.665 591.819,189.165 580,180.5C 575.915,187.593 573.748,195.26 573.5,203.5C 572.226,195.152 572.226,186.652 573.5,178C 570.393,172.872 567.227,167.705 564,162.5C 563.104,159.975 563.604,157.808 565.5,156C 580.248,150.863 595.248,146.529 610.5,143C 627.234,139.253 640.901,143.92 651.5,157C 660.055,158.558 664.888,163.725 666,172.5C 666.667,179.5 666.667,186.5 666,193.5C 663.23,203.038 659.897,212.372 656,221.5C 654.257,226.717 653.09,232.05 652.5,237.5 Z"/></g>
<g><path style="opacity:1" fill="#bae1fe" d="M 143.5,143.5 C 172.502,143.333 201.502,143.5 230.5,144C 231.833,145.333 231.833,146.667 230.5,148C 201.169,148.5 171.835,148.667 142.5,148.5C 142.366,146.708 142.699,145.042 143.5,143.5 Z"/></g>
<g><path style="opacity:1" fill="#b7e0fe" d="M 88.5,156.5 C 136.167,156.5 183.833,156.5 231.5,156.5C 231.5,157.5 231.5,158.5 231.5,159.5C 183.833,159.5 136.167,159.5 88.5,159.5C 88.5,158.5 88.5,157.5 88.5,156.5 Z"/></g>
<g><path style="opacity:1" fill="#bfe4fd" d="M 88.5,163.5 C 135.835,163.333 183.168,163.5 230.5,164C 231.833,165 231.833,166 230.5,167C 183.5,167.667 136.5,167.667 89.5,167C 88.6634,165.989 88.33,164.822 88.5,163.5 Z"/></g>
<g><path style="opacity:1" fill="#9fc8fd" d="M 235.5,170.5 C 236.833,170.5 238.167,170.5 239.5,170.5C 251.833,170.5 264.167,170.5 276.5,170.5C 277.829,195.667 277.829,220.833 276.5,246C 221.167,246.667 165.833,246.667 110.5,246C 109.508,228.577 109.175,211.077 109.5,193.5C 109.5,192.167 109.5,190.833 109.5,189.5C 109.5,188.833 109.5,188.167 109.5,187.5C 109.5,185.833 109.5,184.167 109.5,182.5C 109.335,179.15 109.502,175.817 110,172.5C 110.5,172 111,171.5 111.5,171C 152.832,170.5 194.165,170.333 235.5,170.5 Z"/></g>
<g><path style="opacity:1" fill="#f3f8fd" d="M 116.5,176.5 C 118.833,176.5 121.167,176.5 123.5,176.5C 124.265,181.906 121.931,183.906 116.5,182.5C 116.5,180.5 116.5,178.5 116.5,176.5 Z"/></g>
<g><path style="opacity:1" fill="#f8fbfd" d="M 128.5,176.5 C 130.5,176.5 132.5,176.5 134.5,176.5C 134.5,178.5 134.5,180.5 134.5,182.5C 132.5,182.5 130.5,182.5 128.5,182.5C 128.5,180.5 128.5,178.5 128.5,176.5 Z"/></g>
<g><path style="opacity:1" fill="#f7fafd" d="M 140.5,176.5 C 142.5,176.5 144.5,176.5 146.5,176.5C 146.5,178.5 146.5,180.5 146.5,182.5C 144.5,182.5 142.5,182.5 140.5,182.5C 140.5,180.5 140.5,178.5 140.5,176.5 Z"/></g>
<g><path style="opacity:1" fill="#ef9859" d="M 573.5,226.5 C 572.207,218.841 572.207,211.174 573.5,203.5C 573.748,195.26 575.915,187.593 580,180.5C 591.819,189.165 603.985,189.665 616.5,182C 624.009,179.512 627.343,182.179 626.5,190C 625.791,194.497 625.624,198.997 626,203.5C 627,204.5 628,205.5 629,206.5C 631.466,215.796 630.799,224.796 627,233.5C 618.018,244.908 606.185,250.908 591.5,251.5C 586.516,251.758 582.683,249.758 580,245.5C 577.098,239.292 574.932,232.959 573.5,226.5 Z"/></g>
<g><path style="opacity:0.994" fill="#b9e1fd" d="M 109.5,182.5 C 109.5,184.167 109.5,185.833 109.5,187.5C 99.4944,187.666 89.4944,187.5 79.5,187C 78.1667,185.667 78.1667,184.333 79.5,183C 89.4944,182.5 99.4944,182.334 109.5,182.5 Z"/></g>
<g><path style="opacity:1" fill="#fbfcfe" d="M 115.5,190.5 C 167.834,190.333 220.168,190.5 272.5,191C 273.658,208.093 273.825,225.259 273,242.5C 220.571,243.664 168.071,243.831 115.5,243C 114.173,225.5 114.173,208 115.5,190.5 Z"/></g>
<g><path style="opacity:1" fill="#ee985a" d="M 652.5,237.5 C 654.223,246.667 656.556,255.667 659.5,264.5C 654.792,277.709 645.792,286.876 632.5,292C 628.5,292.667 624.5,292.667 620.5,292C 618.476,287.72 617.143,283.22 616.5,278.5C 618.719,279.54 620.719,279.04 622.5,277C 627.805,272.701 631.972,267.534 635,261.5C 636.493,252.891 637.326,244.225 637.5,235.5C 636.142,225.21 635.642,214.877 636,204.5C 637.458,202.04 639.291,199.873 641.5,198C 646.161,195.577 649.661,196.744 652,201.5C 653.708,211.391 650.541,219.224 642.5,225C 645.252,229.693 648.585,233.86 652.5,237.5 Z"/></g>
<g><path style="opacity:1" fill="#a1c9fd" d="M 180.5,197.5 C 209.835,197.333 239.169,197.5 268.5,198C 269.833,199.333 269.833,200.667 268.5,202C 239.5,202.667 210.5,202.667 181.5,202C 180.62,200.644 180.286,199.144 180.5,197.5 Z"/></g>
<g><path style="opacity:1" fill="#9ed49b" d="M 310.5,206.5 C 331.676,206.503 340.176,216.837 336,237.5C 329.851,248.116 320.684,251.949 308.5,249C 295.955,242.396 291.788,232.229 296,218.5C 299.571,212.743 304.405,208.743 310.5,206.5 Z"/></g>
<g><path style="opacity:1" fill="#a8cdfd" d="M 127.5,209.5 C 174.501,209.333 221.501,209.5 268.5,210C 269.833,211 269.833,212 268.5,213C 221.5,213.667 174.5,213.667 127.5,213C 126.316,211.855 126.316,210.688 127.5,209.5 Z"/></g>
<g><path style="opacity:1" fill="#9ec7fd" d="M 126.5,217.5 C 174.167,217.5 221.833,217.5 269.5,217.5C 269.5,218.5 269.5,219.5 269.5,220.5C 221.833,220.5 174.167,220.5 126.5,220.5C 126.5,219.5 126.5,218.5 126.5,217.5 Z"/></g>
<g><path style="opacity:1" fill="#f3f9f2" d="M 325.5,220.5 C 327.686,220.511 328.519,221.511 328,223.5C 323.614,228.389 318.78,232.722 313.5,236.5C 311.545,234.042 309.378,231.709 307,229.5C 306.517,228.552 306.351,227.552 306.5,226.5C 307.552,226.351 308.552,226.517 309.5,227C 311.017,228.685 312.684,230.185 314.5,231.5C 318.521,228.146 322.188,224.479 325.5,220.5 Z"/></g>
<g><path style="opacity:1" fill="#aacdfd" d="M 118.5,235.5 C 147.169,235.333 175.835,235.5 204.5,236C 207.167,237.667 207.167,239.333 204.5,241C 175.833,241.667 147.167,241.667 118.5,241C 115.982,239.19 115.982,237.357 118.5,235.5 Z"/></g>
<g><path style="opacity:1" fill="#a3cafd" d="M 209.5,236.5 C 212.833,236.5 216.167,236.5 219.5,236.5C 219.5,238.167 219.5,239.833 219.5,241.5C 216.167,241.5 212.833,241.5 209.5,241.5C 209.5,239.833 209.5,238.167 209.5,236.5 Z"/></g>
<g><path style="opacity:1" fill="#aed0fd" d="M 222.5,235.5 C 225.85,235.335 229.183,235.502 232.5,236C 233.833,237.667 233.833,239.333 232.5,241C 229.183,241.498 225.85,241.665 222.5,241.5C 222.5,239.5 222.5,237.5 222.5,235.5 Z"/></g>
<g><path style="opacity:1" fill="#e08341" d="M 637.5,235.5 C 637.326,244.225 636.493,252.891 635,261.5C 631.972,267.534 627.805,272.701 622.5,277C 620.719,279.04 618.719,279.54 616.5,278.5C 616.784,276.585 616.451,274.919 615.5,273.5C 614.941,269.147 614.275,264.814 613.5,260.5C 619.825,258.892 625.658,256.226 631,252.5C 634.288,247.118 636.455,241.451 637.5,235.5 Z"/></g>
<g><path style="opacity:1" fill="#a2def1" d="M 659.5,264.5 C 688.268,283.719 718.934,299.552 751.5,312C 755.175,314.828 757.842,318.328 759.5,322.5C 768.122,349.944 773.122,378.11 774.5,407C 774.961,416.98 773.128,426.48 769,435.5C 767.363,437.81 765.196,439.31 762.5,440C 754.27,438.867 745.937,438.533 737.5,439C 730.192,439.494 723.192,441.161 716.5,444C 745.436,438.926 765.27,450.093 776,477.5C 777.604,487.793 773.77,495.293 764.5,500C 759.989,501.925 755.323,503.258 750.5,504C 713.561,507.61 676.561,509.944 639.5,511C 642.756,509.413 644.923,506.913 646,503.5C 646.667,496.833 646.667,490.167 646,483.5C 643.531,475.118 638.031,471.951 629.5,474C 627.24,474.549 625.574,475.716 624.5,477.5C 623.167,477.5 621.833,477.5 620.5,477.5C 620.389,476.883 620.056,476.383 619.5,476C 645.939,464.722 673.273,456.222 701.5,450.5C 701.268,432.984 700.601,415.484 699.5,398C 698.13,368.44 704.963,341.274 720,316.5C 707.617,325.918 698.617,337.918 693,352.5C 684.857,373.074 679.523,394.407 677,416.5C 672.121,427.056 665.288,436.223 656.5,444C 638.522,458.33 619.189,470.664 598.5,481C 596.866,481.494 595.199,481.66 593.5,481.5C 578.68,452.2 565.513,422.2 554,391.5C 546.483,364.199 542.649,336.533 542.5,308.5C 542.414,307.504 542.748,306.671 543.5,306C 567.645,295.427 591.645,284.593 615.5,273.5C 616.451,274.919 616.784,276.585 616.5,278.5C 617.143,283.22 618.476,287.72 620.5,292C 624.5,292.667 628.5,292.667 632.5,292C 645.792,286.876 654.792,277.709 659.5,264.5 Z"/></g>
<g><path style="opacity:1" fill="#76a2de" d="M 381.5,479.5 C 390.943,475.539 395.943,468.373 396.5,458C 388.057,412.178 379.557,366.345 371,320.5C 368.193,312.359 362.693,306.859 354.5,304C 290.332,303.833 226.332,303.333 162.5,302.5C 162.918,301.778 163.584,301.278 164.5,301C 232.167,300.333 299.833,300.333 367.5,301C 375.775,303.607 380.941,309.107 383,317.5C 391.587,364.112 399.753,410.778 407.5,457.5C 406.521,473.683 397.854,481.016 381.5,479.5 Z"/></g>
<g><path style="opacity:1" fill="#a7cdfe" d="M 162.5,302.5 C 226.332,303.333 290.332,303.833 354.5,304C 362.693,306.859 368.193,312.359 371,320.5C 379.557,366.345 388.057,412.178 396.5,458C 395.943,468.373 390.943,475.539 381.5,479.5C 355.167,479.5 328.833,479.5 302.5,479.5C 302.667,457.497 302.5,435.497 302,413.5C 296.876,400.934 287.543,395.934 274,398.5C 261.485,395.926 252.485,400.259 247,411.5C 245.531,434.101 245.031,456.767 245.5,479.5C 226.83,479.667 208.164,479.5 189.5,479C 182.618,476.416 178.118,471.583 176,464.5C 167.881,418.455 159.548,372.455 151,326.5C 149.919,319.946 150.586,313.612 153,307.5C 155.12,304.082 158.287,302.415 162.5,302.5 Z"/></g>
<g><path style="opacity:1" fill="#96cfdf" d="M 542.5,308.5 C 542.649,336.533 546.483,364.199 554,391.5C 565.513,422.2 578.68,452.2 593.5,481.5C 579.773,480.074 566.106,478.574 552.5,477C 550.04,478.458 547.873,480.291 546,482.5C 541.938,489.954 538.438,497.621 535.5,505.5C 529.974,505.179 524.64,505.512 519.5,506.5C 518.833,506.5 518.5,506.167 518.5,505.5C 521.305,504.681 524.305,504.181 527.5,504C 533.97,497.217 538.47,489.384 541,480.5C 541.667,472.833 541.667,465.167 541,457.5C 539.553,435.475 537.887,413.475 536,391.5C 535.5,369.836 535.333,348.169 535.5,326.5C 537.062,320.139 539.395,314.139 542.5,308.5 Z"/></g>
<g><path style="opacity:1" fill="#a2def1" d="M 535.5,326.5 C 535.333,348.169 535.5,369.836 536,391.5C 537.887,413.475 539.553,435.475 541,457.5C 541.667,465.167 541.667,472.833 541,480.5C 538.47,489.384 533.97,497.217 527.5,504C 524.305,504.181 521.305,504.681 518.5,505.5C 507.92,496.04 495.92,488.873 482.5,484C 477.75,483.777 473.084,483.277 468.5,482.5C 468.414,481.504 468.748,480.671 469.5,480C 476.672,475.581 483.672,470.915 490.5,466C 491.46,464.581 492.293,463.081 493,461.5C 504.439,426.08 515.106,390.413 525,354.5C 527.841,344.796 531.341,335.463 535.5,326.5 Z"/></g>
<g><path style="opacity:1" fill="#96cee0" d="M 620.5,477.5 C 618.011,477.298 615.677,477.798 613.5,479C 612.663,480.011 612.33,481.178 612.5,482.5C 611.732,481.737 611.232,480.737 611,479.5C 609.193,481.706 609.026,484.039 610.5,486.5C 604.68,485.001 599.013,483.334 593.5,481.5C 595.199,481.66 596.866,481.494 598.5,481C 619.189,470.664 638.522,458.33 656.5,444C 665.288,436.223 672.121,427.056 677,416.5C 679.523,394.407 684.857,373.074 693,352.5C 698.617,337.918 707.617,325.918 720,316.5C 704.963,341.274 698.13,368.44 699.5,398C 700.601,415.484 701.268,432.984 701.5,450.5C 673.273,456.222 645.939,464.722 619.5,476C 620.056,476.383 620.389,476.883 620.5,477.5 Z"/></g>
<g><path style="opacity:1" fill="#96cedf" d="M 759.5,322.5 C 764.583,329.34 768.083,337.006 770,345.5C 781.226,392.024 788.059,439.191 790.5,487C 790.772,494.791 787.438,500.457 780.5,504C 770.543,508.578 760.21,511.078 749.5,511.5C 710.671,512.714 672.004,512.714 633.5,511.5C 634.306,510.272 635.306,509.272 636.5,508.5C 639.315,507.676 641.482,506.009 643,503.5C 643.667,496.833 643.667,490.167 643,483.5C 641.52,480.337 639.02,478.504 635.5,478C 631.973,477.192 628.64,477.359 625.5,478.5C 624.833,478.5 624.5,478.167 624.5,477.5C 625.574,475.716 627.24,474.549 629.5,474C 638.031,471.951 643.531,475.118 646,483.5C 646.667,490.167 646.667,496.833 646,503.5C 644.923,506.913 642.756,509.413 639.5,511C 676.561,509.944 713.561,507.61 750.5,504C 755.323,503.258 759.989,501.925 764.5,500C 773.77,495.293 777.604,487.793 776,477.5C 765.27,450.093 745.436,438.926 716.5,444C 723.192,441.161 730.192,439.494 737.5,439C 745.937,438.533 754.27,438.867 762.5,440C 765.196,439.31 767.363,437.81 769,435.5C 773.128,426.48 774.961,416.98 774.5,407C 773.122,378.11 768.122,349.944 759.5,322.5 Z"/></g>
<g><path style="opacity:1" fill="#78a4df" d="M 302.5,479.5 C 301.108,486.594 303.108,492.428 308.5,497C 324.075,498.303 339.741,498.97 355.5,499C 360.624,501.755 363.957,505.922 365.5,511.5C 365.768,513.099 365.434,514.432 364.5,515.5C 361.034,512.951 357.034,511.451 352.5,511C 336.167,510.667 319.833,510.333 303.5,510C 299.51,508.01 297.01,504.843 296,500.5C 295.667,471.5 295.333,442.5 295,413.5C 290.15,403.824 282.317,399.491 271.5,400.5C 259.66,399.331 251.827,404.331 248,415.5C 247.333,442.833 247.333,470.167 248,497.5C 248.856,501.544 250.522,505.211 253,508.5C 256.09,511.111 259.256,513.445 262.5,515.5C 259.097,514.927 256.097,513.594 253.5,511.5C 246.174,502.154 243.507,491.488 245.5,479.5C 245.031,456.767 245.531,434.101 247,411.5C 252.485,400.259 261.485,395.926 274,398.5C 287.543,395.934 296.876,400.934 302,413.5C 302.5,435.497 302.667,457.497 302.5,479.5 Z"/></g>
<g><path style="opacity:1" fill="#a7cdfe" d="M 364.5,515.5 C 330.5,515.5 296.5,515.5 262.5,515.5C 259.256,513.445 256.09,511.111 253,508.5C 250.522,505.211 248.856,501.544 248,497.5C 247.333,470.167 247.333,442.833 248,415.5C 251.827,404.331 259.66,399.331 271.5,400.5C 282.317,399.491 290.15,403.824 295,413.5C 295.333,442.5 295.667,471.5 296,500.5C 297.01,504.843 299.51,508.01 303.5,510C 319.833,510.333 336.167,510.667 352.5,511C 357.034,511.451 361.034,512.951 364.5,515.5 Z"/></g>
<g><path style="opacity:1" fill="#ef995a" d="M 593.5,481.5 C 599.013,483.334 604.68,485.001 610.5,486.5C 613.869,488.511 617.536,489.511 621.5,489.5C 625.147,496.586 625.48,503.919 622.5,511.5C 611.167,511.5 599.833,511.5 588.5,511.5C 583.765,506.978 578.098,505.144 571.5,506C 569.519,508.662 567.019,510.495 564,511.5C 563.167,511.167 562.333,510.833 561.5,510.5C 562.18,509.14 562.847,507.807 563.5,506.5C 565.109,503.47 567.109,500.637 569.5,498C 563.378,497.395 559.044,499.895 556.5,505.5C 554.37,507.127 552.37,508.96 550.5,511C 546.289,512.534 541.956,512.867 537.5,512C 535.771,510.211 535.104,508.044 535.5,505.5C 538.438,497.621 541.938,489.954 546,482.5C 547.873,480.291 550.04,478.458 552.5,477C 566.106,478.574 579.773,480.074 593.5,481.5 Z"/></g>
<g><path style="opacity:1" fill="#ee995a" d="M 625.5,478.5 C 628.64,477.359 631.973,477.192 635.5,478C 639.02,478.504 641.52,480.337 643,483.5C 643.667,490.167 643.667,496.833 643,503.5C 641.482,506.009 639.315,507.676 636.5,508.5C 636.457,503.715 636.29,498.715 636,493.5C 633.588,490.01 631.755,486.343 630.5,482.5C 629.421,480.457 627.754,479.124 625.5,478.5 Z"/></g>
<g><path style="opacity:1" fill="#e7c9b2" d="M 620.5,477.5 C 622.291,478.391 624.124,479.391 626,480.5C 626.507,481.996 626.007,483.163 624.5,484C 620.198,485.006 616.198,484.506 612.5,482.5C 612.33,481.178 612.663,480.011 613.5,479C 615.677,477.798 618.011,477.298 620.5,477.5 Z"/></g>
<g><path style="opacity:1" fill="#4668a0" d="M 620.5,477.5 C 621.833,477.5 623.167,477.5 624.5,477.5C 624.5,478.167 624.833,478.5 625.5,478.5C 627.754,479.124 629.421,480.457 630.5,482.5C 630.07,487.803 627.07,490.136 621.5,489.5C 617.536,489.511 613.869,488.511 610.5,486.5C 609.026,484.039 609.193,481.706 611,479.5C 611.232,480.737 611.732,481.737 612.5,482.5C 616.198,484.506 620.198,485.006 624.5,484C 626.007,483.163 626.507,481.996 626,480.5C 624.124,479.391 622.291,478.391 620.5,477.5 Z"/></g>
<g><path style="opacity:1" fill="#a86c48" d="M 630.5,482.5 C 631.755,486.343 633.588,490.01 636,493.5C 636.29,498.715 636.457,503.715 636.5,508.5C 635.306,509.272 634.306,510.272 633.5,511.5C 629.833,511.5 626.167,511.5 622.5,511.5C 625.48,503.919 625.147,496.586 621.5,489.5C 627.07,490.136 630.07,487.803 630.5,482.5 Z"/></g>
<g><path style="opacity:1" fill="#f19d60" d="M 468.5,482.5 C 473.084,483.277 477.75,483.777 482.5,484C 495.92,488.873 507.92,496.04 518.5,505.5C 518.5,506.167 518.833,506.5 519.5,506.5C 519.5,507.5 519.5,508.5 519.5,509.5C 514.67,508.752 510.003,507.419 505.5,505.5C 501.656,503.321 497.656,501.321 493.5,499.5C 492.719,500.729 492.219,502.062 492,503.5C 490.698,504.085 489.531,504.751 488.5,505.5C 478.161,505.334 467.828,505.5 457.5,506C 455.747,509.858 453.413,510.358 450.5,507.5C 444.537,506.504 438.537,506.171 432.5,506.5C 433.63,502.687 435.963,499.687 439.5,497.5C 437.102,496.276 434.769,496.442 432.5,498C 430.371,500.439 428.371,502.939 426.5,505.5C 423.66,508.143 420.327,508.976 416.5,508C 415.748,507.329 415.414,506.496 415.5,505.5C 421.01,498.825 427.344,492.992 434.5,488C 440.493,488.132 446.493,488.132 452.5,488C 455.049,485.602 457.383,482.935 459.5,480C 462.993,479.131 465.993,479.964 468.5,482.5 Z"/></g>
<g><path style="opacity:1" fill="#e4e7eb" d="M 432.5,506.5 C 430.621,505.659 428.621,505.325 426.5,505.5C 428.371,502.939 430.371,500.439 432.5,498C 434.769,496.442 437.102,496.276 439.5,497.5C 435.963,499.687 433.63,502.687 432.5,506.5 Z"/></g>
<g><path style="opacity:1" fill="#9fc8d3" d="M 563.5,506.5 C 561.393,505.532 559.059,505.198 556.5,505.5C 559.044,499.895 563.378,497.395 569.5,498C 567.109,500.637 565.109,503.47 563.5,506.5 Z"/></g>
<g><path style="opacity:1" fill="#a5d6e6" d="M 505.5,505.5 C 499.833,505.5 494.167,505.5 488.5,505.5C 489.531,504.751 490.698,504.085 492,503.5C 492.219,502.062 492.719,500.729 493.5,499.5C 497.656,501.321 501.656,503.321 505.5,505.5 Z"/></g>
<g><path style="opacity:1" fill="#769ed9" d="M 415.5,505.5 C 415.414,506.496 415.748,507.329 416.5,508C 420.327,508.976 423.66,508.143 426.5,505.5C 428.621,505.325 430.621,505.659 432.5,506.5C 438.537,506.171 444.537,506.504 450.5,507.5C 453.413,510.358 455.747,509.858 457.5,506C 467.828,505.5 478.161,505.334 488.5,505.5C 494.167,505.5 499.833,505.5 505.5,505.5C 510.003,507.419 514.67,508.752 519.5,509.5C 519.5,508.5 519.5,507.5 519.5,506.5C 524.64,505.512 529.974,505.179 535.5,505.5C 535.104,508.044 535.771,510.211 537.5,512C 541.956,512.867 546.289,512.534 550.5,511C 552.37,508.96 554.37,507.127 556.5,505.5C 559.059,505.198 561.393,505.532 563.5,506.5C 562.847,507.807 562.18,509.14 561.5,510.5C 562.333,510.833 563.167,511.167 564,511.5C 567.019,510.495 569.519,508.662 571.5,506C 578.098,505.144 583.765,506.978 588.5,511.5C 588.607,513.903 587.607,515.736 585.5,517C 520.833,517.667 456.167,517.667 391.5,517C 390.029,515.417 389.029,513.583 388.5,511.5C 388.393,509.097 389.393,507.264 391.5,506C 399.493,505.5 407.493,505.334 415.5,505.5 Z"/></g>
<g><path style="opacity:0.999" fill="#34609c" d="M 38.5,511.5 C 110.167,511.5 181.833,511.5 253.5,511.5C 256.097,513.594 259.097,514.927 262.5,515.5C 296.5,515.5 330.5,515.5 364.5,515.5C 365.434,514.432 365.768,513.099 365.5,511.5C 373.167,511.5 380.833,511.5 388.5,511.5C 389.029,513.583 390.029,515.417 391.5,517C 456.167,517.667 520.833,517.667 585.5,517C 587.607,515.736 588.607,513.903 588.5,511.5C 599.833,511.5 611.167,511.5 622.5,511.5C 626.167,511.5 629.833,511.5 633.5,511.5C 672.004,512.714 710.671,512.714 749.5,511.5C 792.168,511.333 834.835,511.5 877.5,512C 878.931,512.465 880.097,513.299 881,514.5C 881.497,516.81 881.663,519.143 881.5,521.5C 880.373,522.122 879.373,522.955 878.5,524C 598.5,524.667 318.5,524.667 38.5,524C 34.5471,519.835 34.5471,515.669 38.5,511.5 Z"/></g>
<g><path style="opacity:0.008" fill="#f5f7fa" d="M 38.5,511.5 C 34.5471,515.669 34.5471,519.835 38.5,524C 318.5,524.667 598.5,524.667 878.5,524C 879.373,522.955 880.373,522.122 881.5,521.5C 881.833,521.5 882.167,521.5 882.5,521.5C 881.139,523.527 879.473,525.194 877.5,526.5C 598.167,526.5 318.833,526.5 39.5,526.5C 36.2927,524.453 33.9593,521.619 32.5,518C 33.3305,514.672 35.3305,512.506 38.5,511.5 Z"/></g>
</svg>
