<?xml version="1.0" encoding="UTF-8"?>
<!DOCTYPE svg PUBLIC "-//W3C//DTD SVG 1.1//EN" "http://www.w3.org/Graphics/SVG/1.1/DTD/svg11.dtd">
<svg xmlns="http://www.w3.org/2000/svg" version="1.1" width="1080px" height="1080px" style="shape-rendering:geometricPrecision; text-rendering:geometricPrecision; image-rendering:optimizeQuality; fill-rule:evenodd; clip-rule:evenodd" xmlns:xlink="http://www.w3.org/1999/xlink">
<g><path style="opacity:0.979" fill="#2d3c91" d="M 567.5,42.5 C 705.062,38.0419 819.895,86.3752 912,187.5C 938.572,218.273 960.405,252.273 977.5,289.5C 977.154,290.696 976.654,290.696 976,289.5C 907.567,185.32 811.4,123.487 687.5,104C 544.205,88.8606 424.039,134.027 327,239.5C 241.674,341.455 211.341,458.121 236,589.5C 261.27,700.625 321.436,787.125 416.5,849C 417.696,849.654 417.696,850.154 416.5,850.5C 302.125,795.954 225.625,708.287 187,587.5C 147.66,443.195 173.994,312.529 266,195.5C 345.127,103.018 445.627,52.0181 567.5,42.5 Z"/></g>
<g><path style="opacity:0.989" fill="#169991" d="M 367.5,58.5 C 368.552,58.3505 369.552,58.5172 370.5,59C 237.041,138.623 157.208,255.456 131,409.5C 112.691,555.333 150.357,684.333 244,796.5C 350.897,914.83 484.397,969.997 644.5,962C 785.685,949.336 900.852,888.503 990,779.5C 996.167,771.167 1002.33,762.833 1008.5,754.5C 1008.83,754.667 1009.17,754.833 1009.5,755C 941.137,883.013 837.471,968.346 698.5,1011C 554.573,1049.49 418.906,1030.49 291.5,954C 168.305,873.901 92.1379,761.401 63,616.5C 37.4596,456.277 76.793,314.61 181,191.5C 233.347,133.307 295.514,88.9739 367.5,58.5 Z"/></g>
<g><path style="opacity:0.974" fill="#29dfd3" d="M 643.5,129.5 C 776.143,127.564 879.643,180.898 954,289.5C 962.436,303.453 970.269,317.787 977.5,332.5C 977.154,333.696 976.654,333.696 976,332.5C 909.02,232.658 815.02,180.992 694,177.5C 568.296,181.706 472.296,236.706 406,342.5C 350.069,444.295 345.736,548.295 393,654.5C 420.939,711.94 461.773,757.94 515.5,792.5C 516.521,793.002 516.688,793.668 516,794.5C 405.315,740.122 338.981,652.122 317,530.5C 301.011,406.446 338.511,301.946 429.5,217C 490.849,163.838 562.182,134.672 643.5,129.5 Z"/></g>
</svg>
